# xmcd
#
# Track frame offsets:
#	150
#	18810
#	33962
#	52890
#	75407
#	92470
#	106640
#	124177
#	142035
#	160660
#	175827
#	194662
#	217110
#	234170
#	248245
#	265757
#
# Disc length: 3783 seconds
#
# Revision: 1
# Processed by: cddbd v1.5.2PL0 Copyright (c) Steve Scherf et al.
# Submitted via: audiograbber 1.83.01
#
DISCID=c40ec510
DTITLE=Country Picks vol 90 - sc3184
DYEAR=1900
DGENRE=Country
TTITLE0=Miner, Shane - 01 - I Think You're Beautiful
TTITLE1=Adkins, Trace - 02 - More (RADIO VERSION)
TTITLE2=Davidson, Clay - 03 - Unconditional
TTITLE3=Herndon, Ty - 04 - No Mercy
TTITLE4=Paisley, Brad - 05 - Me Neither
TTITLE5=Brown, Sawyer - 06 - 800 Pound Jesus
TTITLE6=Raye, Collin - 07 - Couldn't Last A Moment
TTITLE7=Chesner, Kenny - 08 - What I Need To Do (RADIO VERSION)
TTITLE8=Miner, Shane - 09 - I Think You're Beautiful (vocals)
TTITLE9=Adkins, Trace - 10 - More (RADIO VERSION) (vocals)
TTITLE10=Davidson, Clay - 11 - Unconditional (vocals)
TTITLE11=Herndon, Ty - 12 - No Mercy (vocals)
TTITLE12=Paisley, Brad - 13 - Me Neither (vocals)
TTITLE13=Brown, Sawyer - 14 - 800 Pound Jesus (vocals)
TTITLE14=Raye, Collin - 15 - Couldn't Last A Moment (vocals)
TTITLE15=Chesner, Kenny - 16 - What I Need To Do (RADIO VERSION) (vocals)
EXTD=
EXTT0=
EXTT1=
EXTT2=
EXTT3=
EXTT4=
EXTT5=
EXTT6=
EXTT7=
EXTT8=
EXTT9=
EXTT10=
EXTT11=
EXTT12=
EXTT13=
EXTT14=
EXTT15=
PLAYORDER=
